<svg  id="favicon" viewBox="0 0 200 200" fill="none" xmlns="http://www.w3.org/2000/svg">
<path id="letter-b" d="M0 148V51H41.4319C49.1581 51 55.6772 51.9681 60.9889 53.9042C66.3007 55.8403 70.3087 58.6961 73.0129 62.4716C75.8137 66.1502 77.214 70.7001 77.214 76.1213C77.214 80.6712 76.0551 84.6886 73.7372 88.1736C71.5159 91.6587 68.2323 94.5145 63.8863 96.741C69.2946 98.5803 73.4958 101.436 76.4897 105.308C79.5802 109.084 81.1254 113.827 81.1254 119.539C81.1254 125.541 79.6285 130.672 76.6346 134.931C73.7372 139.191 69.4395 142.434 63.7414 144.66C58.0433 146.887 51.1863 148 43.1703 148H0ZM21.1506 130.43H43.7498C47.2266 130.43 50.0756 129.946 52.2969 128.978C54.6148 127.913 56.3049 126.461 57.3673 124.621C58.5262 122.782 59.1057 120.604 59.1057 118.087C59.1057 114.505 57.8502 111.649 55.3391 109.519C52.8281 107.39 48.965 106.325 43.7498 106.325H21.1506V130.43ZM21.1506 89.9162H42.3011C46.6471 89.9162 49.9308 88.9481 52.1521 87.012C54.3734 84.979 55.484 82.3653 55.484 79.1707C55.484 75.7824 54.3251 73.1687 52.0072 71.3293C49.6893 69.3932 46.3574 68.4251 42.0114 68.4251H21.1506V89.9162Z" fill="currentColor"/>
<path id="letter-m" d="M93.0883 148V51H125.394L146.544 122.443L167.984 51H200V148H179.284V70.6033L155.381 148H137.562L113.659 70.6033V148H93.0883Z" fill="currentColor"/>
<style>
path { fill: purple; }
@media (prefers-color-scheme: dark) { path { fill: gold; } }
</style>
</svg>
